<svg width="243" height="328" viewBox="0 0 243 328" fill="none" xmlns="http://www.w3.org/2000/svg">
<path d="M113.382 240.582L113.429 328H156.421L159.724 240.582H113.382Z" fill="#5279B0"/>
<path d="M206.726 240.582L206.68 328H163.688L160.384 240.582H206.726Z" fill="#5279B0"/>
<path d="M183.247 270.952H138.796V240.582H183.247V270.952Z" fill="#5279B0"/>
<path d="M208.199 187.409C208.199 187.409 224.089 185.946 234.953 178.737L234.667 172.393L208.19 176.021L208.199 187.409Z" fill="#FFCBBF"/>
<path d="M31.9501 122.888L69.5296 167.531L58.03 200.109C58.03 200.109 29.4674 160.162 16.6331 129.286L31.9501 122.888" fill="#FFD5BD"/>
<path d="M33.1855 124.499C33.1855 124.499 19.9896 131.999 16.6331 129.286C10.7675 124.545 5.91992 107.191 5.91992 107.191C5.91992 107.191 30.597 97.8332 30.3653 98.1985C30.1328 98.5646 33.1855 124.499 33.1855 124.499" fill="#FFD5BD"/>
<path d="M33.1855 124.5C32.9523 123.163 38.0788 108.746 39.8368 103.34C40.26 102.036 39.367 100.607 37.9593 100.336C37.0438 100.159 35.5929 100.273 34.9075 101.595L28.7172 112.236L33.1855 124.5" fill="#FFD5BD"/>
<path d="M32.7333 108.914L28.4838 87.6469C28.2313 86.2316 26.818 85.2567 25.4079 85.5244C24.187 85.7567 23.3821 86.851 23.5256 88.0815L25.3782 103.918L32.7333 108.914Z" fill="#FFD5BD"/>
<path d="M24.2824 101.07L18.5114 85.8834C18.0344 84.5537 16.5466 83.8166 15.2335 84.2593C14.0943 84.6432 13.4546 85.7979 13.7248 86.9833L18.0072 104.532L24.2824 101.07" fill="#FFD5BD"/>
<path d="M18.0809 105.548L10.7795 90.6255C10.1094 89.2401 8.44192 88.5974 7.07352 89.1966C5.78768 89.7587 5.21852 91.2239 5.76925 92.5553L11.59 106.643L18.0809 105.548Z" fill="#FFD5BD"/>
<path d="M5.91991 107.191L0.190555 98.0492C-0.283217 96.9743 0.154481 95.7679 1.19261 95.2913C2.18585 94.8349 3.41317 95.1938 4.05529 96.1292L11.59 106.643L5.91991 107.191" fill="#FFD5BD"/>
<path d="M31.5782 107.317C31.5782 107.317 22.9741 106.409 22.0907 117.943" stroke="#28262C" stroke-width="1.09239" stroke-miterlimit="10" stroke-linecap="round" stroke-linejoin="round"/>
<path d="M50.4088 184.871C50.4088 184.871 57.4761 209.478 71.561 206.206C85.6459 202.936 107.597 172.675 107.597 172.675L102.684 121.005L63.1526 169.948L50.4088 184.871" fill="#FFD5BD"/>
<path d="M75.4137 154.746C75.4137 154.746 88.7603 174.996 100.145 182.138L107.597 172.675L78.8495 150.304L75.4137 154.746Z" fill="#FFCBBF"/>
<path d="M133.807 94.9756C133.807 94.9756 94.622 103.86 73.7407 149.671C73.7407 149.671 86.3578 168.794 106.583 177.293L120.125 160.605L133.807 94.9756" fill="#36333A"/>
<path d="M134.882 94.3985C119.802 102.001 110.323 112.084 110.323 112.084L113.298 240.988H208.323L208.016 112.749C208.016 112.749 196.038 101.227 183.055 95.6102C172.029 90.8394 145.601 88.9942 134.882 94.3985" fill="#36333A"/>
<path d="M132.167 156.806C126.557 156.806 122.009 156.806 122.009 146.589V136.371H142.323V146.589C142.323 156.806 137.776 156.806 132.167 156.806Z" stroke="white" stroke-width="0.754137" stroke-miterlimit="10" stroke-linecap="round" stroke-linejoin="round"/>
<path d="M208.199 179.94L209.451 136.134" stroke="#28262C" stroke-width="0.996165" stroke-miterlimit="10" stroke-linecap="round" stroke-linejoin="round"/>
<path d="M110.36 172.639L108.275 134.667" stroke="#28262C" stroke-width="0.996165" stroke-miterlimit="10" stroke-linecap="round" stroke-linejoin="round"/>
<path d="M134.937 45.9233L130.916 25.9125C130.69 24.2828 130.061 21.7676 130.831 19.404C132.104 15.4938 136.785 7.98461 144.786 11.4223L146.515 19.3452C146.515 19.3452 138.207 21.0322 134.874 31.9653L134.937 45.9233" fill="#28262C"/>
<path d="M172.649 91.1496V57.1703H141.51V91.1496L132.241 95.4001C132.241 95.4001 134.415 109.483 157.407 109.795C180.398 110.107 182.707 96.0928 182.707 96.0928L172.649 91.1496Z" fill="#FFD5BD"/>
<path d="M144.786 11.4223C144.786 11.4223 150.501 -3.74286 168.123 4.31953C178.79 9.19906 181.777 15.7422 183.047 20.3774C183.47 21.9184 183.638 24.3441 183.524 25.7843L179.26 45.9233L162.619 18.0606L146.515 19.3452L144.786 11.4223" fill="#28262C"/>
<path d="M179.26 45.9226C179.26 45.9226 181.361 42.5639 185.69 44.2154C190.02 45.8678 188.062 56.4453 181.566 57.7936C181.566 57.7936 179.238 58.3049 177.413 56.7009C177.413 56.7009 179.009 48.8877 179.26 45.9226" fill="#FFCBBF"/>
<path d="M184.832 47.9477C184.832 47.9477 181.204 46.73 178.63 52.103" stroke="#28262C" stroke-width="0.996165" stroke-miterlimit="10" stroke-linecap="round" stroke-linejoin="round"/>
<path d="M134.937 45.9226C134.937 45.9226 132.838 42.5639 128.507 44.2154C124.178 45.8678 126.136 56.4453 132.631 57.7936C132.631 57.7936 134.96 58.3049 136.785 56.7009C136.785 56.7009 135.188 48.8877 134.937 45.9226" fill="#FFCBBF"/>
<path d="M129.367 47.9477C129.367 47.9477 132.993 46.73 135.568 52.103" stroke="#28262C" stroke-width="0.996165" stroke-miterlimit="10" stroke-linecap="round" stroke-linejoin="round"/>
<path d="M179.694 35.8846C179.696 42.2616 179.074 55.6035 175.178 63.5216C171.518 70.9566 165.466 74.9571 157.532 75.1958C149.597 75.4337 143.687 72.3581 138.95 62.7087C134.213 53.0593 134.44 36.0032 134.44 36.0032C134.44 36.0032 134.44 13.2231 156.821 13.2231C180.394 13.2231 179.694 35.8846 179.694 35.8846" fill="#FFD5BD"/>
<path d="M141.744 67.4645C141.744 67.4645 144.352 80.7749 155.867 82.3039C169.12 84.0634 172.649 67.8032 172.649 67.8032C172.649 67.8032 166.793 75.185 157.532 75.1962C147.203 75.2092 141.744 67.4645 141.744 67.4645" fill="#28262C"/>
<path d="M148.86 42.8246C148.86 43.9568 147.948 44.8745 146.823 44.8745C145.698 44.8745 144.786 43.9568 144.786 42.8246C144.786 41.6933 145.698 40.7748 146.823 40.7748C147.948 40.7748 148.86 41.6933 148.86 42.8246Z" fill="#28262C"/>
<path d="M167.964 42.8246C167.964 43.9568 167.051 44.8745 165.927 44.8745C164.801 44.8745 163.889 43.9568 163.889 42.8246C163.889 41.6933 164.801 40.7748 165.927 40.7748C167.051 40.7748 167.964 41.6933 167.964 42.8246Z" fill="#28262C"/>
<path d="M160.711 32.6277L174.41 36.188C174.41 36.188 173.787 32.3221 168.183 30.9182C162.579 29.5134 160.711 32.6277 160.711 32.6277Z" fill="#28262C"/>
<path d="M152.198 32.6277L138.499 36.188C138.499 36.188 139.122 32.3221 144.726 30.9182C150.331 29.5134 152.198 32.6277 152.198 32.6277Z" fill="#28262C"/>
<path d="M149.474 55.9264C149.474 55.9264 151.495 57.4844 156.809 57.4844C161.642 57.4844 164.661 55.9264 164.661 55.9264" stroke="#28262C" stroke-width="0.996165" stroke-miterlimit="10" stroke-linecap="round" stroke-linejoin="round"/>
<path d="M155.471 45.3417V50.614C155.471 50.8406 155.514 51.0575 155.593 51.2559C155.904 52.0373 156.797 52.4115 157.605 52.1953L159.342 51.73" stroke="#28262C" stroke-width="0.996165" stroke-miterlimit="10" stroke-linecap="round" stroke-linejoin="round"/>
<rect x="137.884" y="35.8023" width="17.0336" height="13.8111" rx="3.47671" stroke="#28262C" stroke-width="1.60464"/>
<rect x="158.927" y="35.8023" width="17.0336" height="13.8111" rx="3.47671" stroke="#28262C" stroke-width="1.60464"/>
<path d="M154.933 43.4229C154.933 43.4229 156.983 41.499 158.886 43.4229" stroke="#28262C" stroke-width="1.3917" stroke-miterlimit="10"/>
<path d="M137.616 43.4229L134.714 43.3506" stroke="#28262C" stroke-width="1.3917" stroke-miterlimit="10"/>
<path d="M176.202 43.4229L179.443 43.3716" stroke="#28262C" stroke-width="1.3917" stroke-miterlimit="10"/>
<path d="M134.977 26.4512C134.977 26.4512 138.061 26.3696 139.787 25.5443C141.812 24.5756 141.98 22.6039 143.995 21.6131C148.447 19.4244 150.004 24.8185 154.216 25.5442C159.675 26.4847 163.215 26.496 168.345 24.3347C170.298 23.5123 170.593 22.7843 172.253 22.5203C175.376 22.0238 179.769 25.5443 179.769 25.5443C179.769 25.5443 178.24 15.877 177.656 16.0729C177.073 16.2681 143.394 9.5169 143.394 9.5169L134.977 26.4512Z" fill="#28262C"/>
<path d="M227.943 268.154C235.391 216.509 236.543 193.817 233.886 164.293L205.035 169.059L215.834 267.686C208.473 272.712 209.075 283.519 209.673 287.93C209.828 289.08 210.677 290.007 211.806 290.244C213.462 290.589 215.009 289.324 215.054 287.624C215.223 281.013 218.594 280.536 218.594 280.536C223.957 289.274 219.362 294.996 216.122 297.645C214.79 298.732 214.456 300.633 215.415 302.061L215.531 302.234C216.401 303.529 218.074 304.026 219.508 303.423C240.373 294.669 228.928 270.171 227.943 268.154Z" fill="#FFD5BD"/>
<path d="M182.707 96.0921C182.707 96.0921 233.179 108.86 242.323 173.303C242.323 173.303 217.621 184.076 192.867 179.442L198.436 157.888L182.707 96.0921Z" fill="#36333A"/>
<path d="M130.768 6.02624C127.995 9.7566 130.768 21.9392 130.768 21.9392L144.597 13.4854L183.677 21.9392C183.677 21.9392 184.502 13.9068 181.573 9.75584C176.988 3.25881 169.206 1.76468 160.229 0.556498C148.723 -0.992053 134.767 0.647324 130.768 6.02624Z" fill="#28262C"/>
</svg>
