<svg width="480" height="480" viewBox="0 0 480 480" fill="none" xmlns="http://www.w3.org/2000/svg">
<rect width="480" height="480" rx="240" fill="#0475E3"/>
<path fill-rule="evenodd" clip-rule="evenodd" d="M115.21 140.195C115.213 126.39 126.405 115.2 140.21 115.2H339.795C353.602 115.2 364.795 126.393 364.795 140.2V217.121C364.795 223.187 367.063 229 370.798 233.78C387.568 255.236 398.777 280.465 403.487 307.2C404.485 312.863 405.191 318.594 405.596 324.37C406.046 330.783 400.793 336 394.365 336C387.936 336 382.775 330.78 382.251 324.373C381.12 310.528 377.98 297.006 372.998 284.213C371.125 279.404 364.795 280.897 364.795 286.057V339.8C364.795 353.607 353.602 364.8 339.795 364.8H140.195C126.388 364.8 115.195 353.607 115.195 339.8V286.098C115.195 280.937 108.865 279.445 106.993 284.255C102.021 297.036 98.8867 310.543 97.7568 324.373C97.2333 330.78 92.0716 336 85.6433 336C79.215 336 73.9614 330.783 74.4115 324.37C74.8169 318.594 75.523 312.863 76.5206 307.2C81.2292 280.472 92.4339 255.249 109.196 233.797C112.93 229.019 115.196 223.209 115.197 217.145L115.21 140.195ZM183.904 144C173.755 144 167.154 154.68 171.693 163.757C176.607 173.586 188.158 177.922 198.802 175.194C212.154 171.773 225.987 170 240.004 170C254.025 170 267.864 171.774 281.22 175.198C291.866 177.927 303.42 173.591 308.335 163.76C312.875 154.681 306.273 144 296.123 144L183.904 144ZM327.127 194.7C326.238 194.152 325.907 193.016 326.374 192.082L332.206 180.417C333.15 178.529 335.995 179.201 335.995 181.311V196.699C335.995 198.322 334.159 199.275 332.813 198.368C330.941 197.105 329.045 195.882 327.127 194.7ZM276.698 227.036C283.366 213.699 276.911 197.329 262.182 195.012C254.89 193.865 247.477 193.279 240.004 193.279C232.539 193.279 225.133 193.864 217.85 195.008C203.119 197.323 196.662 213.695 203.331 227.032L231.071 282.512C234.756 289.883 245.274 289.883 248.959 282.512L276.698 227.036ZM153.651 192.072C154.118 193.006 153.787 194.141 152.898 194.689C150.968 195.879 149.061 197.109 147.178 198.379C145.832 199.287 143.995 198.334 143.995 196.711V181.233C143.995 179.122 146.84 178.451 147.784 180.338L153.651 192.072ZM149.742 225.446C157.518 219.096 168.796 222.362 173.286 231.342L218.379 321.528C221.704 328.177 216.869 336 209.435 336L168.995 336C155.188 336 143.995 324.807 143.995 311V237.952C143.995 233.141 146.015 228.489 149.742 225.446ZM270.596 336C263.162 336 258.327 328.177 261.651 321.528L306.753 231.324C311.235 222.36 322.494 219.101 330.257 225.439C333.978 228.477 335.995 233.121 335.995 237.925V311C335.995 324.807 324.802 336 310.995 336L270.596 336Z" fill="white"/>
</svg>
