<svg width="1655" height="1025" viewBox="0 0 1655 1025" fill="none" xmlns="http://www.w3.org/2000/svg">
<path d="M0 0V1025H1608.41C1634.14 1025 1655 1004.14 1655 978.409C1655 952.678 1634.14 931.818 1608.41 931.818H1437.09C1411.36 931.818 1390.5 910.959 1390.5 885.228C1390.5 859.496 1411.36 838.637 1437.09 838.637H1504.51C1530.24 838.637 1551.1 817.777 1551.1 792.046C1551.1 766.314 1530.24 745.454 1504.51 745.454H1467.15C1441.42 745.454 1420.56 724.595 1420.56 698.863C1420.56 673.132 1399.7 652.272 1373.97 652.272H1209.95C1184.22 652.272 1163.36 631.413 1163.36 605.682C1163.36 579.95 1184.22 559.091 1209.95 559.091H1230.91C1256.64 559.091 1277.5 538.231 1277.5 512.5V504.409C1277.5 483.146 1294.74 465.909 1316 465.909C1337.26 465.909 1354.5 448.672 1354.5 427.409V419.318C1354.5 393.587 1333.64 372.728 1307.91 372.728H1154.09C1128.36 372.728 1107.5 351.868 1107.5 326.137C1107.5 300.405 1086.64 279.545 1060.91 279.545H962.191C936.46 279.545 915.601 258.686 915.601 232.954V224.993C915.601 203.658 898.306 186.363 876.972 186.363C855.637 186.363 838.342 169.068 838.342 147.734V139.772C838.342 114.041 859.201 93.1816 884.933 93.1816H917.409C943.141 93.1816 964 72.3223 964 46.5908C964 20.8594 943.141 0 917.409 0H0Z" fill="white"/>
</svg>
