<svg width="36" height="33" viewBox="0 0 36 33" fill="none" xmlns="http://www.w3.org/2000/svg">
<circle cx="32" cy="29" r="4" fill="#19BF66"/>
<rect x="-0.475933" y="0.475933" width="2.66523" height="18.2758" rx="1.33261" transform="matrix(1 0 0 -1 14.707 19.2758)" fill="#0066FF" stroke="#0066FF" stroke-width="0.951867"/>
<rect x="-0.058662" y="0.67051" width="2.66523" height="16.3721" rx="1.33261" transform="matrix(0.766044 -0.642788 -0.642788 -0.766044 15.8982 19.8198)" fill="#0066FF" stroke="#0066FF" stroke-width="0.951867"/>
<rect x="24.1796" y="5.08877" width="2.66523" height="16.3721" rx="1.33261" transform="rotate(40 24.1796 5.08877)" fill="#0066FF" stroke="#0066FF" stroke-width="0.951867"/>
<rect x="0.386058" y="0.551348" width="2.66523" height="16.3721" rx="1.33261" transform="matrix(0.173648 -0.984808 -0.984808 -0.173648 17.048 19.528)" fill="#0066FF" stroke="#0066FF" stroke-width="0.951867"/>
<rect x="30.0887" y="13.5844" width="2.66523" height="16.3721" rx="1.33261" transform="rotate(80 30.0887 13.5844)" fill="#0066FF" stroke="#0066FF" stroke-width="0.951867"/>
<rect x="0.650137" y="0.174204" width="2.66523" height="16.3721" rx="1.33261" transform="matrix(-0.5 -0.866025 -0.866025 0.5 17.86 18.5542)" fill="#0066FF" stroke="#0066FF" stroke-width="0.951867"/>
<rect x="29.1872" y="23.9562" width="2.66523" height="16.3721" rx="1.33261" transform="rotate(120 29.1872 23.9562)" fill="#0066FF" stroke="#0066FF" stroke-width="0.951867"/>
<rect x="0.61001" y="-0.284452" width="2.66523" height="16.3721" rx="1.33261" transform="matrix(-0.939693 -0.34202 -0.34202 0.939693 17.7271 17.1976)" fill="#0066FF" stroke="#0066FF" stroke-width="0.951867"/>
<rect x="0.284452" y="-0.61001" width="2.66523" height="16.3721" rx="1.33261" transform="matrix(-0.939693 0.34202 0.34202 0.939693 16.8869 16.2861)" fill="#0066FF" stroke="#0066FF" stroke-width="0.951867"/>
</svg>
