<svg width="168" height="24" viewBox="0 0 168 24" fill="none" xmlns="http://www.w3.org/2000/svg">
<path fill-rule="evenodd" clip-rule="evenodd" d="M25.2168 16.688C26.5895 16.2479 27.7553 15.3237 28.4971 14.0877L26.4594 12.8647C26.0142 13.6062 25.3148 14.1607 24.4912 14.4249C23.6676 14.6889 22.776 14.6446 21.9827 14.3001C21.1893 13.9556 20.5483 13.3345 20.179 12.5524C19.8097 11.7703 19.7373 10.8806 19.9752 10.0491C20.2132 9.21765 20.7453 8.50099 21.4725 8.03272C22.1997 7.5645 23.0724 7.37657 23.9278 7.50398C24.7833 7.6314 25.5632 8.06546 26.1224 8.72528C26.3122 8.94932 26.4722 9.19415 26.6002 9.45372H22.7963V11.8789H29.3443V10.9088H29.3431C29.3152 9.54626 28.8197 8.23195 27.9356 7.18876C27.0037 6.08902 25.7037 5.36561 24.278 5.15323C22.8522 4.94085 21.3978 5.25406 20.1858 6.03449C18.9739 6.81492 18.0869 8.00933 17.6903 9.39516C17.2937 10.7811 17.4143 12.2638 18.0299 13.5673C18.6455 14.8708 19.7139 15.906 21.0361 16.4802C22.3583 17.0543 23.8442 17.1281 25.2168 16.688ZM26.949 10.6663C26.9414 10.5918 26.9314 10.5176 26.9191 10.4439V10.6663H26.949Z" fill="#313140"/>
<path fill-rule="evenodd" clip-rule="evenodd" d="M50.4395 16.688C51.8122 16.2479 52.978 15.3237 53.7198 14.0877L51.682 12.8647C51.2369 13.6062 50.5374 14.1607 49.7138 14.4249C48.8902 14.6889 47.9987 14.6446 47.2053 14.3001C46.412 13.9556 45.771 13.3345 45.4016 12.5524C45.0323 11.7703 44.9599 10.8806 45.1979 10.0491C45.4358 9.21765 45.968 8.50099 46.6952 8.03272C47.4224 7.5645 48.295 7.37657 49.1505 7.50398C50.006 7.6314 50.7859 8.06546 51.3451 8.72528C51.5349 8.94932 51.6949 9.19415 51.8228 9.45372H48.019V11.8789H54.567V10.9088H54.5657C54.5379 9.54626 54.0423 8.23195 53.1583 7.18876C52.2263 6.08902 50.9263 5.36561 49.5006 5.15323C48.0748 4.94085 46.6205 5.25406 45.4085 6.03449C44.1965 6.81492 43.3096 8.00933 42.913 9.39516C42.5163 10.7811 42.637 12.2638 43.2525 13.5673C43.8681 14.8708 44.9365 15.906 46.2588 16.4802C47.581 17.0543 49.0668 17.1281 50.4395 16.688ZM52.1717 10.6663C52.164 10.5918 52.154 10.5176 52.1418 10.4439V10.6663H52.1717Z" fill="#313140"/>
<path d="M36.6193 5.33147C38.1657 5.2555 39.2784 5.70803 40.257 6.90777C40.7942 7.56635 41.1804 8.31403 41.2271 9.33301C41.2284 9.36315 41.2293 9.39689 41.2297 9.43141C41.2299 9.4551 41.23 9.47913 41.23 9.50258C41.2298 9.6056 41.2271 9.69696 41.2271 9.69696V16.9723H38.5594V9.69696C38.5594 9.69696 38.5588 9.54847 38.5473 9.45427C38.4882 8.97267 37.973 8.38484 37.9531 8.36312C37.3463 7.70045 36.6634 7.53633 35.7704 7.63556C35.0966 7.7104 34.6582 7.92924 34.1941 8.36312C33.8199 8.71292 33.4665 9.45444 33.4665 9.45444V16.9723H30.7988L30.7988 0.723633H33.4665V6.78675C33.4665 6.78675 34.2223 6.1007 34.8004 5.81644C35.4601 5.49204 35.885 5.36752 36.6193 5.33147Z" fill="#313140"/>
<path d="M11.1558 5.33135C12.7022 5.25539 13.815 5.70792 14.7936 6.90766C15.3307 7.56623 15.7169 8.31392 15.7636 9.33289C15.7658 9.38067 15.7666 9.43746 15.7666 9.49181C15.7666 9.53243 15.7661 9.57168 15.7656 9.60478C15.7648 9.65913 15.7636 9.69685 15.7636 9.69685V16.9722H13.096V9.69685C13.096 9.69685 13.0954 9.54835 13.0838 9.45415C13.0248 8.97255 12.5096 8.38473 12.4897 8.363C11.8829 7.70034 11.2 7.53621 10.307 7.63545C9.81279 7.69033 9.44516 7.82272 9.10122 8.06056C9.29649 8.43766 9.43835 8.85567 9.45819 9.33343C9.46411 9.47511 9.45819 9.69667 9.45819 9.69667V16.9722H6.7905V9.69667H6.79636C6.79636 9.69667 6.7963 9.67737 6.79571 9.64824C6.79523 9.62503 6.79446 9.59566 6.7931 9.56487C6.79144 9.52722 6.78901 9.48749 6.78534 9.45445C6.73194 8.97374 6.26514 8.38704 6.24708 8.36537C5.69745 7.70395 5.07878 7.54012 4.26982 7.63918C3.65932 7.7139 3.26221 7.93232 2.84177 8.36537C2.78262 8.42629 2.72406 8.49906 2.66769 8.57775V16.9722H0V5.33135H2.66769V6.34749C2.89061 6.15737 3.15687 5.95038 3.39098 5.82355C3.98863 5.49974 4.37361 5.37546 5.03875 5.33946C6.33891 5.26906 7.30058 5.65297 8.14086 6.66579C8.38539 6.4559 8.90974 6.0264 9.33693 5.81633C9.99663 5.49193 10.4216 5.36741 11.1558 5.33135Z" fill="#313140"/>
<path d="M59.1765 5.33156H56.5088V16.9724H59.1765V7.71293C59.1832 7.70552 59.1899 7.6983 59.1966 7.69131C59.5188 7.35454 59.8232 7.18467 60.291 7.12653C60.911 7.04949 61.3851 7.17691 61.8064 7.69131C61.8202 7.70819 62.1779 8.16457 62.2189 8.53841C62.227 8.61153 62.2273 8.72681 62.2273 8.72681H64.2673C64.2673 8.72681 64.2718 8.55451 64.2673 8.44427C64.2367 7.69522 63.8262 7.13499 63.466 6.64356L63.406 6.56156C62.7266 5.63015 61.954 5.27887 60.8803 5.33784C60.3705 5.36584 60.0755 5.46253 59.6175 5.71435C59.4764 5.79197 59.3199 5.90813 59.1765 6.0262V5.33156Z" fill="#313140"/>
<path d="M80.3966 7.9724C79.7266 6.85616 78.7086 5.99084 77.499 5.50947C76.2894 5.0281 74.9552 4.95732 73.7014 5.30803C72.4477 5.65873 71.3438 6.41149 70.5596 7.4506C69.7753 8.48971 69.354 9.75765 69.3604 11.0595C69.3669 12.3613 69.8007 13.625 70.5953 14.6563C71.3898 15.6876 72.5011 16.4294 73.7582 16.7677C75.0154 17.1059 76.3488 17.0219 77.5536 16.5286C78.7584 16.0353 79.7678 15.1599 80.4266 14.0371L78.3768 12.8343C77.9815 13.508 77.3758 14.0332 76.653 14.3292C75.9301 14.6252 75.13 14.6756 74.3757 14.4726C73.6214 14.2697 72.9547 13.8246 72.478 13.2058C72.0012 12.587 71.7409 11.8288 71.7371 11.0477C71.7332 10.2666 71.986 9.50585 72.4565 8.88239C72.9271 8.25892 73.5894 7.80726 74.3417 7.59684C75.0939 7.38642 75.8944 7.42888 76.6202 7.7177C77.346 8.00653 77.9568 8.52572 78.3588 9.19547L80.3966 7.9724Z" fill="#313140"/>
<path d="M87.0636 5.33147C88.61 5.2555 89.7228 5.70803 90.7014 6.90777C91.2385 7.56635 91.6247 8.31403 91.6714 9.33301C91.6728 9.36315 91.6736 9.39689 91.674 9.43141C91.6743 9.4551 91.6743 9.47913 91.6743 9.50258C91.6741 9.6056 91.6714 9.69696 91.6714 9.69696V16.9723H89.0037V9.69696C89.0037 9.69696 89.0031 9.54847 88.9916 9.45427C88.9326 8.97267 88.4173 8.38484 88.3974 8.36312C87.7907 7.70045 87.1078 7.53633 86.2148 7.63556C85.5409 7.7104 85.1025 7.92924 84.6384 8.36312C84.2642 8.71292 83.9109 9.45444 83.9109 9.45444V16.9723H81.2432L81.2432 0.723633H83.9109V6.78675C83.9109 6.78675 84.6667 6.1007 85.2447 5.81644C85.9044 5.49204 86.3293 5.36752 87.0636 5.33147Z" fill="#313140"/>
<path d="M133.385 5.08838H136.052V6.10451C136.16 6.01262 136.278 5.91676 136.398 5.82795C136.525 5.73304 136.655 5.64612 136.776 5.58058C137.373 5.25677 137.758 5.13249 138.424 5.09649C139.824 5.02064 140.832 5.47229 141.719 6.66984L141.797 6.77511C142.267 7.40698 142.803 8.12731 142.843 9.09045C142.849 9.23214 142.843 9.4537 142.843 9.4537V16.7292H140.175V9.4537H140.181C140.181 9.4537 140.181 9.40414 140.179 9.34422C140.177 9.30047 140.175 9.25114 140.17 9.21148C140.117 8.73076 139.65 8.14407 139.632 8.1224C139.082 7.46098 138.464 7.29715 137.655 7.3962C137.044 7.47093 136.647 7.68935 136.227 8.1224C136.167 8.18332 136.109 8.25609 136.052 8.33478V16.7292H133.385V5.08838Z" fill="#313140"/>
<path d="M153.756 19.1544C153.756 19.1837 153.754 19.2124 153.751 19.2408C153.7 20.2908 153.26 21.2873 152.513 22.0341C151.717 22.8301 150.638 23.2772 149.512 23.2772C148.386 23.2772 147.307 22.8301 146.511 22.0341C145.715 21.2382 145.268 20.1588 145.268 19.0331H147.913C147.913 19.4572 148.082 19.8638 148.381 20.1637C148.681 20.4636 149.088 20.632 149.512 20.632C149.936 20.632 150.343 20.4636 150.643 20.1637C150.879 19.9276 151.033 19.6253 151.088 19.3005V14.0177C150.866 14.2072 150.601 14.4131 150.368 14.5394C149.77 14.8632 149.385 14.9875 148.72 15.0235C147.319 15.0993 146.311 14.6477 145.424 13.4501L145.346 13.3449C144.876 12.713 144.341 11.9927 144.3 11.0295C144.299 11.0012 144.299 10.9697 144.298 10.9373C144.298 10.909 144.298 10.8802 144.298 10.8524C144.298 10.7528 144.3 10.6663 144.3 10.6663H144.298V5.08838H146.966V10.6663H146.962C146.962 10.6663 146.962 10.7074 146.964 10.7601C146.966 10.8074 146.968 10.864 146.973 10.9085C147.027 11.3892 147.494 11.9759 147.512 11.9976C148.061 12.659 148.68 12.8228 149.489 12.7238C150.099 12.6491 150.496 12.4306 150.917 11.9976C150.944 11.9699 150.971 11.9397 150.997 11.9076C151.028 11.8703 151.058 11.8304 151.088 11.7888V5.08838H153.756V19.1544Z" fill="#313140"/>
<path fill-rule="evenodd" clip-rule="evenodd" d="M105.009 5.08838H102.341V6.78675C102.338 6.78348 101.463 5.91192 100.765 5.57418C99.9373 5.1736 99.1766 5.10116 98.461 5.08914C95.3132 5.03624 92.9155 7.76145 92.8831 10.9096C92.8504 14.092 95.4611 17.0448 98.7035 16.8513C99.6906 16.7923 100.291 16.6495 101.129 16.1237C101.667 15.7857 102.338 15.0356 102.341 15.0324V16.9717H105.009V5.08838ZM102.341 11.0301C102.341 9.08795 100.767 7.51356 98.8248 7.51356C96.8827 7.51356 95.3083 9.08795 95.3083 11.0301C95.3083 12.9722 96.8827 14.5466 98.8248 14.5466C100.767 14.5466 102.341 12.9722 102.341 11.0301Z" fill="#313140"/>
<path fill-rule="evenodd" clip-rule="evenodd" d="M131.93 5.08838H129.262V6.78675C129.259 6.78348 128.384 5.91192 127.686 5.57418C126.858 5.1736 126.098 5.10116 125.382 5.08914C122.234 5.03624 119.836 7.76145 119.804 10.9096C119.771 14.092 122.382 17.0448 125.624 16.8513C126.611 16.7923 127.212 16.6495 128.05 16.1237C128.588 15.7857 129.259 15.0356 129.262 15.0324V16.9717H131.93V5.08838ZM129.262 11.0301C129.262 9.08795 127.688 7.51356 125.746 7.51356C123.804 7.51356 122.229 9.08795 122.229 11.0301C122.229 12.9722 123.804 14.5466 125.746 14.5466C127.688 14.5466 129.262 12.9722 129.262 11.0301Z" fill="#313140"/>
<path fill-rule="evenodd" clip-rule="evenodd" d="M167.096 5.08838H164.428V6.78675C164.425 6.78348 163.55 5.91192 162.852 5.57418C162.024 5.1736 161.264 5.10116 160.548 5.08914C157.4 5.03624 155.002 7.76145 154.97 10.9096C154.937 14.092 157.548 17.0448 160.79 16.8513C161.777 16.7923 162.378 16.6495 163.216 16.1237C163.754 15.7857 164.425 15.0356 164.428 15.0324V16.9717H167.096V5.08838ZM164.428 11.0301C164.428 9.08795 162.854 7.51356 160.912 7.51356C158.97 7.51356 157.395 9.08795 157.395 11.0301C157.395 12.9722 158.97 14.5466 160.912 14.5466C162.854 14.5466 164.428 12.9722 164.428 11.0301Z" fill="#313140"/>
<path d="M106.949 5.08895H109.374V16.9723H106.949V5.08895Z" fill="#313140"/>
<path d="M109.859 2.42126C109.859 3.35883 109.099 4.11888 108.161 4.11888C107.224 4.11888 106.464 3.35883 106.464 2.42126C106.464 1.48368 107.224 0.723633 108.161 0.723633C109.099 0.723633 109.859 1.48368 109.859 2.42126Z" fill="#313140"/>
<path d="M113.256 1.93604H115.681V5.45254H118.591V7.87772H115.681V13.4556C115.681 13.4556 115.73 13.9545 115.924 14.1832C116.157 14.4585 116.772 14.547 116.772 14.547H118.591V16.8509H116.409C116.409 16.8509 114.661 16.6801 113.983 16.0021C113.305 15.324 113.256 13.6981 113.256 13.6981V7.87772H111.073V5.5738H113.256V1.93604Z" fill="#313140"/>
</svg>
