<svg width="48" height="48" viewBox="0 0 48 48" fill="none" xmlns="http://www.w3.org/2000/svg">
<rect y="42" width="6" height="6" fill="#CEA584"/>
<rect y="36" width="6" height="6" fill="#CEA584"/>
<rect y="30" width="6" height="6" fill="#E2B890"/>
<rect x="6" y="42" width="6" height="6" fill="#CDA684"/>
<rect x="6" y="36" width="6" height="6" fill="#E2B88F"/>
<rect x="6" y="30" width="6" height="6" fill="#F6CBA2"/>
<rect x="36" y="30" width="6" height="6" fill="#F6CBA2"/>
<rect x="12" y="30" width="6" height="6" fill="#FFE1BF"/>
<rect x="18" y="24" width="6" height="6" fill="#FDD5AF"/>
<rect x="24" y="24" width="6" height="6" fill="#FFE1BE"/>
<rect y="24" width="6" height="6" fill="#FFE3C3"/>
<rect y="18" width="6" height="6" fill="#FDD6B0"/>
<rect y="12" width="6" height="6" fill="#FEDCB7"/>
<rect x="6" y="12" width="6" height="6" fill="#FDD6AE"/>
<rect x="6" y="12" width="6" height="6" fill="#FDD6AE"/>
<rect x="6" y="6" width="6" height="6" fill="#FEDCB9"/>
<rect x="12" y="12" width="6" height="6" fill="#FFE1BE"/>
<rect x="18" y="12" width="6" height="6" fill="#FFEBD2"/>
<rect x="12" y="18" width="6" height="6" fill="#FDD6B0"/>
<rect x="24" y="18" width="6" height="6" fill="#FDD6B0"/>
<rect x="36" y="18" width="6" height="6" fill="#FDD6B0"/>
<rect x="6" y="18" width="6" height="6" fill="#FFE3C2"/>
<rect x="18" y="18" width="6" height="6" fill="#FFE3C2"/>
<rect x="30" y="18" width="6" height="6" fill="#FFE3C2"/>
<rect x="42" y="24" width="6" height="6" fill="#FFE3C3"/>
<rect x="6" y="24" width="6" height="6" fill="white"/>
<rect x="36" y="24" width="6" height="6" fill="white"/>
<rect x="30" y="24" width="6" height="6" fill="#3F4149"/>
<rect x="42" y="12" width="6" height="6" fill="#3F414A"/>
<rect x="42" y="6" width="6" height="6" fill="#3F414A"/>
<rect x="42" width="6" height="6" fill="#3F414A"/>
<rect x="30" width="6" height="6" fill="#3F414A"/>
<rect x="30" y="6" width="6" height="6" fill="#3F414A"/>
<rect x="36" width="6" height="6" fill="#3F414A"/>
<rect x="24" width="6" height="6" fill="#3F414A"/>
<rect x="18" width="6" height="6" fill="#3F414A"/>
<rect x="18" width="6" height="6" fill="#3F414A"/>
<rect width="6" height="6" fill="#3F414A"/>
<rect x="24" y="6" width="6" height="6" fill="#3F414A"/>
<rect x="30" y="12" width="6" height="6" fill="#3F414A"/>
<rect x="42" y="18" width="6" height="6" fill="#30353B"/>
<rect x="36" y="12" width="6" height="6" fill="#30353B"/>
<rect x="36" y="6" width="6" height="6" fill="#30343D"/>
<rect x="24" y="12" width="6" height="6" fill="#30353B"/>
<rect x="18" y="6" width="6" height="6" fill="#30353B"/>
<rect x="12" y="6" width="6" height="6" fill="#30353B"/>
<rect x="12" width="6" height="6" fill="#30353B"/>
<rect x="6" width="6" height="6" fill="#30353B"/>
<rect y="6" width="6" height="6" fill="#30353B"/>
<rect x="12" y="24" width="6" height="6" fill="#3F4149"/>
<rect x="30" y="30" width="6" height="6" fill="#FFE1BF"/>
<rect x="18" y="30" width="6" height="6" fill="#CFA987"/>
<rect x="24" y="30" width="6" height="6" fill="#CFA987"/>
<rect x="18" y="42" width="6" height="6" fill="#DEB28C"/>
<rect x="24" y="42" width="6" height="6" fill="#CDA888"/>
<rect x="36" y="42" width="6" height="6" fill="#D8AE87"/>
<rect x="30" y="42" width="6" height="6" fill="#D9AE88"/>
<rect x="42" y="42" width="6" height="6" fill="#BEA087"/>
<rect x="42" y="36" width="6" height="6" fill="#BEA087"/>
<rect x="12" y="36" width="6" height="6" fill="#C4A385"/>
<rect x="18" y="36" width="6" height="6" fill="#C4A487"/>
<rect x="24" y="36" width="6" height="6" fill="#C3A386"/>
<rect x="30" y="36" width="6" height="6" fill="#C4A385"/>
<rect x="36" y="36" width="6" height="6" fill="#D7AC86"/>
<rect x="42" y="30" width="6" height="6" fill="#BEA087"/>
<rect x="12" y="42" width="6" height="6" fill="#764236"/>
</svg>
